HIERARCHY
ROOT Hips
{
	OFFSET 0.000000 88.474243 0.000000
	CHANNELS 6 Xposition Yposition Zposition Zrotation Yrotation Xrotation 
	JOINT Hips_Spine
	{
		OFFSET 0.000000 0.000000 0.000000
		CHANNELS 3 Zrotation Yrotation Xrotation
		JOINT Spine
		{
			OFFSET 0.005100 8.711998 -0.691000
			CHANNELS 3 Zrotation Yrotation Xrotation
			JOINT Spine1
			{
				OFFSET -0.009200 8.660301 -1.275000
				CHANNELS 3 Zrotation Yrotation Xrotation
				JOINT Spine2
				{
					OFFSET 0.006300 9.852501 -1.857000
					CHANNELS 3 Zrotation Yrotation Xrotation
					JOINT Spine2_Neck
					{
						OFFSET 0.000000 0.000000 0.000000
						CHANNELS 3 Zrotation Yrotation Xrotation
						JOINT Neck
						{
							OFFSET 0.016300 11.420799 -0.263300
							CHANNELS 3 Zrotation Yrotation Xrotation
							End Site #name: Head
							{
								OFFSET -0.019200 9.262405 2.362500
							}
						}
					}
					JOINT Spine2_LeftShoulder
					{
						OFFSET 0.000000 0.000000 0.000000
						CHANNELS 3 Zrotation Yrotation Xrotation
						JOINT LeftShoulder
						{
							OFFSET 5.616900 6.732201 -0.345700
							CHANNELS 3 Zrotation Yrotation Xrotation
							JOINT LeftArm
							{
								OFFSET 10.664888 -0.183372 -2.440700
								CHANNELS 3 Zrotation Yrotation Xrotation
								JOINT LeftForeArm
								{
									OFFSET 27.459126 0.000000 0.000000
									CHANNELS 3 Zrotation Yrotation Xrotation
									End Site #name: LeftHand
									{
										OFFSET 21.306858 0.000000 0.000000
									}
								}
							}
						}
					}
					JOINT Spine2_RightShoulder
					{
						OFFSET 0.000000 0.000000 0.000000
						CHANNELS 3 Zrotation Yrotation Xrotation
						JOINT RightShoulder
						{
							OFFSET -5.580300 6.737503 -0.344400
							CHANNELS 3 Zrotation Yrotation Xrotation
							JOINT RightArm
							{
								OFFSET -10.679335 -0.188484 -2.383900
								CHANNELS 3 Zrotation Yrotation Xrotation
								JOINT RightForeArm
								{
									OFFSET -27.503529 0.000000 0.000000
									CHANNELS 3 Zrotation Yrotation Xrotation
									End Site #name: RightHand
									{
										OFFSET -21.306808 0.000000 0.000000
									}
								}
							}
						}
					}
				}
			}
		}
	}
	JOINT Hips_LeftUpLeg
	{
		OFFSET 0.000000 0.000000 0.000000
		CHANNELS 3 Zrotation Yrotation Xrotation
		JOINT LeftUpLeg
		{
			OFFSET 6.857700 -6.739601 0.312100
			CHANNELS 3 Zrotation Yrotation Xrotation
			JOINT LeftLeg
			{
				OFFSET -0.367590 -34.731552 -4.572400
				CHANNELS 3 Zrotation Yrotation Xrotation
				End Site #name: LeftFoot
				{
					OFFSET 0.367590 -34.656704 -6.067400
				}
			}
		}
	}
	JOINT Hips_RightUpLeg
	{
		OFFSET 0.000000 0.000000 0.000000
		CHANNELS 3 Zrotation Yrotation Xrotation
		JOINT RightUpLeg
		{
			OFFSET -6.876100 -6.733299 0.301000
			CHANNELS 3 Zrotation Yrotation Xrotation
			JOINT RightLeg
			{
				OFFSET 0.347353 -34.795158 -4.515900
				CHANNELS 3 Zrotation Yrotation Xrotation
				End Site #name: RightFoot
				{
					OFFSET -0.347353 -34.589367 -6.070300
				}
			}
		}
	}
}
MOTION
Frames: 12
Frame Time: 0.041667
0.013417 0.052165 -0.144807 -5.289657 23.039170 1.025238 0.000000 -0.000000 -0.000000 0.076133 -2.490818 0.760686 4.113883 0.383449 2.032557 0.000000 0.000000 0.000000 4.476488 -0.080066 1.447813 -2.427674 -5.208259 -2.911035 2.623068 0.397074 1.191135 -6.458490 -11.861437 2.266498 -87.698665 -2.711067 -4.922462 -0.422372 -11.503194 1.176598 3.522557 -0.486918 1.492423 9.957320 13.110808 3.822506 32.290963 45.729414 -10.736353 -179.741934 49.829781 -175.384662 0.000000 -0.000000 -0.000000 -1.318093 11.782313 -23.569064 -2.496599 -6.535328 5.246667 0.000000 0.000000 0.000000 5.778001 0.012651 -8.673733 1.543951 -7.499952 4.808507 
-0.281869 -0.010693 -0.358965 -5.834067 16.803809 3.508990 0.000000 -0.000000 -0.000000 0.795369 -1.240795 0.216361 5.481248 0.487519 2.143386 0.000000 0.000000 0.000000 4.739108 -0.017177 2.625236 -2.289526 -4.479777 -4.004238 3.784069 0.087031 0.953906 -6.505137 -12.168884 2.175226 -87.670969 -11.596074 -0.704185 -1.343779 -3.918491 -0.299670 4.657597 -0.081911 1.966249 13.050184 14.425415 3.563339 38.535161 42.926094 -24.106142 178.209357 38.657663 -176.951227 0.000000 -0.000000 -0.000000 -0.914742 11.349896 -25.724079 -3.083223 -6.239936 5.162738 0.000000 0.000000 0.000000 5.163722 1.734802 -7.700567 3.889753 -3.691917 2.283034 
-0.395963 -0.053410 -0.532259 -6.550428 16.755961 3.612305 0.000000 -0.000000 -0.000000 1.054805 -0.417962 -0.267613 5.857431 0.517376 2.143263 0.000000 0.000000 0.000000 5.050429 -0.213332 3.360086 -2.876581 -6.109898 -4.014345 3.806285 0.176131 1.909678 -5.023088 -9.465084 0.464603 -88.097021 -12.730228 -1.505138 -1.381345 1.911713 -0.103766 4.878708 0.104275 1.867740 14.975625 15.803603 3.770555 39.606975 45.910398 -22.619506 177.903294 36.773211 -176.592745 0.000000 -0.000000 -0.000000 0.228239 11.784330 -25.790757 -3.090158 -5.873618 6.259368 0.000000 0.000000 0.000000 5.821603 0.883159 -6.227091 4.799419 -1.068502 1.074572 
-0.455128 -0.100470 -0.667163 -7.111349 17.215438 2.956129 0.000000 -0.000000 -0.000000 1.562439 0.069321 -0.521660 5.383353 0.382555 2.062754 0.000000 0.000000 0.000000 4.905717 -0.384256 3.145094 -2.990149 -5.898452 -4.166500 3.646966 -0.000196 1.774286 -5.517406 -6.614439 -1.063844 -88.668363 -14.614835 -3.750898 -1.526938 5.193914 -0.087404 4.642151 -0.070096 1.767575 14.833577 15.799320 3.757724 38.633517 49.298218 -24.357505 177.749291 34.441198 -176.593181 0.000000 -0.000000 -0.000000 1.210119 11.911655 -25.432473 -2.975539 -5.463212 6.550195 -0.000000 0.000000 0.000000 6.521097 -0.713454 -5.379800 4.948614 0.540626 1.048998 
-0.460642 -0.126173 -0.782546 -7.466408 17.983296 2.430769 -0.000000 -0.000000 -0.000000 1.940990 -0.012234 -0.787054 4.796724 0.303364 2.187946 0.000000 0.000000 0.000000 4.576459 -0.438725 3.202276 -3.064191 -5.641363 -4.399914 3.412571 -0.152269 1.759478 -6.209041 -4.886963 -1.907375 -89.139889 -15.881410 -4.759440 -1.589796 7.260495 -0.094865 4.228048 -0.308071 1.829479 14.741106 15.033938 3.580735 38.655330 51.518793 -25.454587 177.785163 33.362090 -176.681059 0.000000 -0.000000 -0.000000 1.766679 12.103934 -24.966149 -2.984116 -5.514217 6.164200 -0.000000 0.000000 0.000000 6.952324 -1.733754 -4.788719 4.656243 0.767854 1.314412 
-0.447195 -0.141454 -0.893519 -7.650234 18.587949 2.166419 -0.000000 -0.000000 -0.000000 2.243220 -0.246612 -0.887174 4.347364 0.214889 2.375029 0.000000 0.000000 0.000000 4.325044 -0.472665 3.361902 -3.063868 -5.531763 -4.676855 3.212062 -0.253364 1.924841 -6.520594 -4.411221 -1.991842 -88.793760 -16.072454 -3.785972 -1.631108 7.942835 -0.115076 3.928345 -0.548736 1.889024 14.706471 13.913835 3.368237 38.200779 52.603142 -26.651684 177.798271 32.952579 -176.787311 0.000000 -0.000000 -0.000000 1.985673 12.153523 -24.674474 -3.001562 -5.717049 5.718959 -0.000000 0.000000 0.000000 7.192410 -1.960841 -4.456220 4.262178 0.167796 1.273823 
-0.425489 -0.157520 -1.005155 -7.722902 18.946816 2.166058 -0.000000 -0.000000 -0.000000 2.573982 -0.391441 -0.881933 4.152845 0.131592 2.535418 0.000000 0.000000 0.000000 4.201077 -0.470469 3.501062 -3.119481 -5.466494 -5.037584 3.088177 -0.285684 2.083331 -6.658202 -4.162604 -1.895289 -88.299505 -15.823348 -3.127438 -1.668968 7.756312 -0.090755 3.788661 -0.649861 1.945881 14.629255 13.335102 3.264119 37.717798 52.743759 -27.331971 177.795869 32.524244 -176.904647 0.000000 0.000000 -0.000000 2.017023 12.062463 -24.568100 -3.043749 -6.002447 5.331556 -0.000000 0.000000 0.000000 7.400542 -1.883032 -4.273079 3.947350 -0.535568 0.968556 
-0.400730 -0.178421 -1.118319 -7.759464 19.309865 2.229102 -0.000000 -0.000000 -0.000000 2.877534 -0.417728 -0.905059 4.155803 0.074523 2.660004 0.000000 0.000000 0.000000 4.186862 -0.449578 3.637420 -3.221003 -5.397949 -5.396376 3.063776 -0.269113 2.170725 -6.719401 -3.903294 -1.839772 -88.390913 -15.367452 -3.117614 -1.685766 7.615410 -0.061313 3.798147 -0.673266 2.028645 14.455441 13.156165 3.211838 37.221329 52.751269 -27.665469 177.792298 32.587766 -176.944998 0.000000 0.000000 -0.000000 1.984002 11.965609 -24.598689 -3.095616 -6.181959 5.098081 -0.000000 0.000000 0.000000 7.572684 -1.717329 -4.222387 3.672678 -1.154400 0.769856 
-0.377911 -0.202696 -1.229747 -7.803837 19.622654 2.262730 -0.000000 -0.000000 -0.000000 3.094036 -0.422938 -0.946849 4.274919 0.039948 2.755074 0.000000 0.000000 0.000000 4.253148 -0.416198 3.771645 -3.340643 -5.333494 -5.592464 3.116437 -0.225483 2.209719 -6.667197 -3.632533 -1.880708 -88.806313 -14.653125 -3.463099 -1.695380 7.779268 -0.034516 3.908092 -0.656329 2.112065 14.168480 13.339421 3.196738 37.124678 52.676694 -27.334711 177.794587 32.940505 -176.947979 0.000000 0.000000 -0.000000 1.964685 11.910385 -24.646760 -3.146268 -6.263437 4.998238 -0.000000 0.000000 0.000000 7.703578 -1.607987 -4.252076 3.463521 -1.640524 0.714535 
-0.357411 -0.227758 -1.338144 -7.855636 19.840310 2.256159 0.000000 0.000000 -0.000000 3.279866 -0.391638 -1.002773 4.420704 0.023340 2.834390 0.000000 0.000000 0.000000 4.346292 -0.387210 3.886662 -3.433083 -5.302203 -5.714156 3.194328 -0.185977 2.216298 -6.521212 -3.551674 -1.917716 -89.373845 -13.908730 -3.884930 -1.703108 8.056319 -0.005556 4.040140 -0.621307 2.186475 13.918729 13.623801 3.190179 37.305324 52.642646 -26.679405 177.804867 33.264354 -176.940681 0.000000 0.000000 -0.000000 1.982369 11.899915 -24.636377 -3.180862 -6.293192 4.916279 0.000000 0.000000 0.000000 7.810377 -1.545332 -4.292947 3.311021 -1.984963 0.740360 
-0.340632 -0.252464 -1.443875 -7.906801 19.941839 2.231226 0.000000 0.000000 -0.000000 3.434929 -0.352824 -1.063375 4.529366 0.012193 2.887585 0.000000 0.000000 0.000000 4.421172 -0.365473 3.978267 -3.487447 -5.295228 -5.793716 3.262971 -0.156559 2.221169 -6.314734 -3.644831 -1.913218 -89.928677 -13.248452 -4.259499 -1.710409 8.462625 0.020119 4.135490 -0.589918 2.253317 13.750734 13.950908 3.204297 37.716368 52.657870 -25.891880 177.810933 33.404793 -176.932284 0.000000 0.000000 -0.000000 2.023493 11.908245 -24.584706 -3.203098 -6.311102 4.843573 0.000000 0.000000 0.000000 7.895795 -1.498725 -4.334427 3.202898 -2.200219 0.821234 
-0.329243 -0.276134 -1.547646 -7.953509 19.981466 2.206249 0.000000 0.000000 -0.000000 3.576028 -0.308054 -1.108344 4.570984 0.009264 2.932963 0.000000 0.000000 0.000000 4.455906 -0.345912 4.049103 -3.521460 -5.287584 -5.863606 3.300824 -0.137056 2.244606 -6.095809 -3.824553 -1.866483 -90.294358 -12.776390 -4.465954 -1.714217 8.901451 0.048827 4.174001 -0.569998 2.311620 13.674176 14.295422 3.246683 38.191817 52.706910 -25.155640 177.806924 33.322696 -176.925763 0.000000 0.000000 -0.000000 2.076035 11.926604 -24.517855 -3.217543 -6.324850 4.769537 0.000000 0.000000 0.000000 7.964246 -1.467616 -4.356961 3.137674 -2.307233 0.892533 
